<svg xmlns="http://www.w3.org/2000/svg" viewBox="0 0 256 256">
  <defs>
    <linearGradient id="bg" x1="10%" y1="8%" x2="88%" y2="94%">
      <stop offset="0%" stop-color="#fff8ef"/>
      <stop offset="52%" stop-color="#f4e6d7"/>
      <stop offset="100%" stop-color="#dfeee8"/>
    </linearGradient>
    <linearGradient id="glass" x1="0%" y1="0%" x2="100%" y2="100%">
      <stop offset="0%" stop-color="#fffdf9" stop-opacity="0.98"/>
      <stop offset="100%" stop-color="#f7efe5" stop-opacity="0.92"/>
    </linearGradient>
    <linearGradient id="glow" x1="0%" y1="0%" x2="100%" y2="100%">
      <stop offset="0%" stop-color="#ffffff" stop-opacity="0.8"/>
      <stop offset="100%" stop-color="#f3d8b6" stop-opacity="0.08"/>
    </linearGradient>
    <linearGradient id="gold" x1="0%" y1="0%" x2="100%" y2="100%">
      <stop offset="0%" stop-color="#ffe7a8"/>
      <stop offset="100%" stop-color="#efbe5c"/>
    </linearGradient>
  </defs>
  <rect width="256" height="256" rx="64" fill="url(#bg)"/>
  <circle cx="52" cy="56" r="7" fill="#fff5d2"/>
  <circle cx="72" cy="40" r="3" fill="#fff8e8"/>
  <circle cx="204" cy="58" r="4.5" fill="#fff0c8"/>
  <path d="M34 188c26-26 57-38 95-38 39 0 72 15 93 40v28H34z" fill="#dac5aa" opacity="0.45"/>
  <rect x="42" y="40" width="172" height="172" rx="48" fill="url(#glass)" stroke="#dec8af" stroke-width="2"/>
  <rect x="64" y="58" width="128" height="140" rx="36" fill="url(#glow)" stroke="#d9c0a3" stroke-width="2"/>
  <path d="M92 96c0-16 13-29 29-29h14c12 0 23 5 31 13 8-8 19-13 31-13h7c16 0 28 12 28 28v3h-22v-1c0-5-4-9-9-9h-10c-11 0-20 9-20 20v48h-22v-48c0-11-9-20-20-20h-16c-5 0-9 4-9 9v1H92z" fill="#3c2d21"/>
  <rect x="84" y="112" width="90" height="56" rx="28" fill="#fffaf4" stroke="#d6b894" stroke-width="2"/>
  <rect x="96" y="126" width="22" height="24" rx="11" fill="#bf7445"/>
  <rect x="124" y="124" width="18" height="26" rx="9" fill="#7dbec4"/>
  <path d="M148 150c0-12 10-22 22-22 10 0 18 6 22 15-5 11-15 18-28 18-7 0-12-2-16-5z" fill="#79995f"/>
  <path d="M186 66l6 12 14 2-10 9 3 14-13-7-13 7 3-14-10-9 14-2z" fill="url(#gold)"/>
  <path d="M74 72l4 8 9 1-7 6 2 9-8-4-8 4 1-9-6-6 9-1z" fill="#fff1c7"/>
</svg>
