<svg xmlns="http://www.w3.org/2000/svg" viewBox="0 0 256 256">
  <defs>
    <linearGradient id="bg" x1="14%" y1="10%" x2="86%" y2="92%">
      <stop offset="0%" stop-color="#d3f4f0"/>
      <stop offset="55%" stop-color="#8fd8d7"/>
      <stop offset="100%" stop-color="#63b8c3"/>
    </linearGradient>
    <linearGradient id="glass" x1="0%" y1="0%" x2="100%" y2="100%">
      <stop offset="0%" stop-color="#fbfffe" stop-opacity="0.96"/>
      <stop offset="100%" stop-color="#dff4f3" stop-opacity="0.9"/>
    </linearGradient>
    <linearGradient id="ink" x1="0%" y1="0%" x2="100%" y2="100%">
      <stop offset="0%" stop-color="#315b6c"/>
      <stop offset="100%" stop-color="#214653"/>
    </linearGradient>
    <linearGradient id="gold" x1="0%" y1="0%" x2="100%" y2="100%">
      <stop offset="0%" stop-color="#fff4cf"/>
      <stop offset="100%" stop-color="#f6cf86"/>
    </linearGradient>
  </defs>
  <rect width="256" height="256" rx="64" fill="url(#bg)"/>
  <circle cx="52" cy="52" r="4" fill="#fff9e6" opacity="0.95"/>
  <circle cx="78" cy="38" r="2.5" fill="#fff9e6" opacity="0.75"/>
  <circle cx="202" cy="56" r="3.5" fill="#fff9e6" opacity="0.92"/>
  <path d="M38 184c24-22 57-36 92-36 38 0 72 16 95 39v24H38z" fill="#76cacc" opacity="0.3"/>
  <rect x="42" y="42" width="172" height="172" rx="50" fill="url(#glass)"/>
  <path d="M85 93c0-11 9-20 20-20h16c11 0 22 5 29 13 7-8 18-13 29-13h16c11 0 20 9 20 20v70c0 11-9 20-20 20h-74c-31 0-56-25-56-56z" fill="url(#ink)"/>
  <path d="M128 88v84" stroke="#dff9f7" stroke-width="7" stroke-linecap="round"/>
  <path d="M104 102h18" stroke="#dff9f7" stroke-width="6" stroke-linecap="round"/>
  <path d="M135 102h18" stroke="#dff9f7" stroke-width="6" stroke-linecap="round"/>
  <path d="M104 122h18" stroke="#dff9f7" stroke-width="6" stroke-linecap="round" opacity="0.94"/>
  <path d="M135 122h18" stroke="#dff9f7" stroke-width="6" stroke-linecap="round" opacity="0.94"/>
  <path d="M104 142h18" stroke="#dff9f7" stroke-width="6" stroke-linecap="round" opacity="0.88"/>
  <path d="M135 142h18" stroke="#dff9f7" stroke-width="6" stroke-linecap="round" opacity="0.88"/>
  <path d="M184 70l5 10 11 1-8 8 2 11-10-6-10 6 2-11-8-8 11-1z" fill="url(#gold)"/>
  <path d="M67 71l3 7 7 1-5 5 1 7-6-4-7 4 2-7-5-5 7-1z" fill="#fff9de" opacity="0.95"/>
</svg>
