<svg xmlns="http://www.w3.org/2000/svg" viewBox="0 0 512 512">
  <defs>
    <linearGradient id="bg" x1="0%" x2="100%" y1="0%" y2="100%">
      <stop offset="0%" stop-color="#f7f0e8"/>
      <stop offset="100%" stop-color="#d9c2a0"/>
    </linearGradient>
    <linearGradient id="accent" x1="0%" x2="100%" y1="0%" y2="100%">
      <stop offset="0%" stop-color="#9a6338"/>
      <stop offset="100%" stop-color="#6f4627"/>
    </linearGradient>
  </defs>
  <rect width="512" height="512" rx="112" fill="url(#bg)"/>
  <rect x="72" y="72" width="368" height="368" rx="92" fill="rgba(255,252,247,0.9)"/>
  <circle cx="256" cy="192" r="78" fill="url(#accent)"/>
  <path d="M188 192c24-34 44-50 68-50 25 0 46 16 68 50-22 31-43 47-68 47-24 0-44-16-68-47z" fill="#fff7ef"/>
  <path d="M154 320c0-40 29-71 66-71h72c37 0 66 31 66 71v34H154z" fill="url(#accent)"/>
  <path d="M205 333h102" stroke="#fff7ef" stroke-linecap="round" stroke-width="18"/>
  <path d="M226 369h60" stroke="#fff7ef" stroke-linecap="round" stroke-width="18"/>
</svg>
