<svg xmlns="http://www.w3.org/2000/svg" viewBox="0 0 512 512">
  <defs>
    <linearGradient id="bg" x1="12%" y1="8%" x2="88%" y2="92%">
      <stop offset="0%" stop-color="#d6f5f1"/>
      <stop offset="55%" stop-color="#93dad8"/>
      <stop offset="100%" stop-color="#61b7c1"/>
    </linearGradient>
    <linearGradient id="glass" x1="0%" y1="0%" x2="100%" y2="100%">
      <stop offset="0%" stop-color="#fbfffe" stop-opacity="0.96"/>
      <stop offset="100%" stop-color="#dff4f3" stop-opacity="0.9"/>
    </linearGradient>
    <linearGradient id="ink" x1="0%" y1="0%" x2="100%" y2="100%">
      <stop offset="0%" stop-color="#325a6a"/>
      <stop offset="100%" stop-color="#1f4653"/>
    </linearGradient>
    <linearGradient id="gold" x1="0%" y1="0%" x2="100%" y2="100%">
      <stop offset="0%" stop-color="#fff4ce"/>
      <stop offset="100%" stop-color="#f4cc84"/>
    </linearGradient>
  </defs>
  <rect width="512" height="512" rx="118" fill="url(#bg)"/>
  <circle cx="104" cy="106" r="5" fill="#fff9e8" opacity="0.95"/>
  <circle cx="145" cy="78" r="3" fill="#fff9e8" opacity="0.7"/>
  <circle cx="400" cy="104" r="4" fill="#fff9e8" opacity="0.92"/>
  <circle cx="426" cy="138" r="3" fill="#fff9e8" opacity="0.75"/>
  <path d="M88 362c43-42 104-70 171-70 70 0 132 29 177 73v44H88z" fill="#72c5c9" opacity="0.32"/>
  <rect x="92" y="88" width="328" height="328" rx="92" fill="url(#glass)" opacity="0.95"/>
  <path d="M171 197c0-18 14-32 32-32h29c16 0 30 8 39 20 9-12 23-20 39-20h29c18 0 32 14 32 32v116c0 18-14 32-32 32H203c-18 0-32-14-32-32z" fill="url(#ink)"/>
  <path d="M256 185v141" stroke="#dff8f7" stroke-width="12" stroke-linecap="round"/>
  <path d="M204 205h37" stroke="#dff8f7" stroke-width="10" stroke-linecap="round"/>
  <path d="M271 205h37" stroke="#dff8f7" stroke-width="10" stroke-linecap="round"/>
  <path d="M204 237h37" stroke="#dff8f7" stroke-width="10" stroke-linecap="round" opacity="0.95"/>
  <path d="M271 237h37" stroke="#dff8f7" stroke-width="10" stroke-linecap="round" opacity="0.95"/>
  <path d="M204 269h37" stroke="#dff8f7" stroke-width="10" stroke-linecap="round" opacity="0.9"/>
  <path d="M271 269h37" stroke="#dff8f7" stroke-width="10" stroke-linecap="round" opacity="0.9"/>
  <path d="M356 144l7 14 15 2-11 10 3 15-14-8-13 8 2-15-11-10 15-2z" fill="url(#gold)"/>
  <path d="M145 129l4 8 9 1-6 6 1 9-8-4-8 4 2-9-7-6 9-1z" fill="#fff8e1" opacity="0.92"/>
</svg>
