<svg xmlns="http://www.w3.org/2000/svg" viewBox="0 0 220 120">
  <rect width="220" height="120" rx="28" fill="#eaf3f3"/>
  <path d="M40 92h140" stroke="#b8d4d6" stroke-width="10" stroke-linecap="round"/>
  <circle cx="84" cy="44" r="12" fill="#3f6f73"/>
  <path d="M84 58v22M84 69l-18 10M84 69l18 10M84 80l-12 18M84 80l12 18" stroke="#3f6f73" stroke-width="8" stroke-linecap="round"/>
  <rect x="124" y="42" width="44" height="12" rx="6" fill="#7ec2c8"/>
  <rect x="118" y="38" width="10" height="20" rx="5" fill="#2f575a"/>
  <rect x="168" y="38" width="10" height="20" rx="5" fill="#2f575a"/>
  <path d="M171 28l4 8 9 1-6 6 1 9-8-4-8 4 2-9-7-6 9-1z" fill="#f1cc80"/>
</svg>
