<svg xmlns="http://www.w3.org/2000/svg" viewBox="0 0 220 120">
  <rect width="220" height="120" rx="28" fill="#f7ece9"/>
  <path d="M66 83c0-20 16-36 36-36s36 16 36 36H66z" fill="#fdf7f4" stroke="#dcb9b3"/>
  <path d="M84 48c7-9 15-14 24-14 9 0 17 5 24 14" stroke="#b96f67" stroke-width="8" stroke-linecap="round"/>
  <circle cx="88" cy="80" r="8" fill="#e29b92"/>
  <circle cx="108" cy="78" r="8" fill="#c88fcd"/>
  <circle cx="128" cy="80" r="8" fill="#f1c781"/>
  <path d="M154 45c8-5 19-6 28 0-4 10-12 17-23 18-5-4-7-11-5-18z" fill="#b36a62"/>
  <path d="M46 44l4 8 9 1-6 6 1 9-8-4-8 4 2-9-7-6 9-1z" fill="#f2cf83"/>
</svg>
