<svg xmlns="http://www.w3.org/2000/svg" viewBox="0 0 220 120">
  <rect width="220" height="120" rx="28" fill="#f8eee3"/>
  <ellipse cx="108" cy="72" rx="54" ry="24" fill="#fffaf4" stroke="#dcb48d"/>
  <circle cx="84" cy="67" r="12" fill="#d26d4f"/>
  <circle cx="113" cy="66" r="11" fill="#f0c96c"/>
  <path d="M137 82c0-14 11-25 25-25 10 0 19 6 23 15-5 10-15 16-27 16-8 0-15-2-21-6z" fill="#7ea35f"/>
  <rect x="46" y="28" width="20" height="46" rx="10" fill="#7bc0c8"/>
  <rect x="52" y="36" width="8" height="26" rx="4" fill="#dff8f7"/>
  <path d="M160 31l4 8 9 1-6 6 1 9-8-4-8 4 2-9-7-6 9-1z" fill="#f2cf83"/>
</svg>
